<?xml version="1.0" encoding="utf-8"?>
<!-- Generator: Adobe Illustrator 19.0.1, SVG Export Plug-In . SVG Version: 6.00 Build 0)  -->
<!DOCTYPE svg PUBLIC "-//W3C//DTD SVG 1.1//EN" "http://www.w3.org/Graphics/SVG/1.1/DTD/svg11.dtd">
<svg version="1.1" id="Layer_1" xmlns="http://www.w3.org/2000/svg" xmlns:xlink="http://www.w3.org/1999/xlink" x="0px" y="0px"
	 width="150px" height="150px" viewBox="0 0 150 150" style="enable-background:new 0 0 150 150;" xml:space="preserve">
<style type="text/css">
	.st0{fill:url(#SVGID_1_);}
	.st1{fill:url(#SVGID_2_);}
	.st2{fill:url(#SVGID_3_);}
	.st3{fill:url(#SVGID_4_);}
	.st4{fill:url(#SVGID_5_);}
	.st5{fill:url(#SVGID_6_);}
	.st6{fill:none;}
	.st7{fill:url(#SVGID_7_);}
</style>
<g>
	<g>
		<linearGradient id="SVGID_1_" gradientUnits="userSpaceOnUse" x1="74.5692" y1="86.3582" x2="141.7421" y2="86.3582">
			<stop  offset="0" style="stop-color:#EF633C"/>
			<stop  offset="1" style="stop-color:#F69C29"/>
		</linearGradient>
		<polygon class="st0" points="79.1,112.4 79.1,55.8 74.6,55.8 74.6,116.9 141.7,116.9 141.7,112.4 		"/>
		<linearGradient id="SVGID_2_" gradientUnits="userSpaceOnUse" x1="129.9158" y1="83.6789" x2="144.4164" y2="83.6789">
			<stop  offset="0" style="stop-color:#EF633C"/>
			<stop  offset="1" style="stop-color:#F69C29"/>
		</linearGradient>
		<polygon class="st1" points="137.2,84 129.8,76.5 126.6,79.7 133.8,87 132.2,87 132.2,90.8 141.1,90.8 141.1,81.9 137.2,81.9 		
			"/>
		<linearGradient id="SVGID_3_" gradientUnits="userSpaceOnUse" x1="82.8038" y1="69.1459" x2="125.249" y2="69.1459">
			<stop  offset="0" style="stop-color:#EF633C"/>
			<stop  offset="1" style="stop-color:#F69C29"/>
		</linearGradient>
		<polygon class="st2" points="103.4,75.3 110.4,68.4 115.2,68.4 122.1,75.2 125.2,72 117.1,63.8 108.5,63.8 103.4,68.9 97.5,63 
			82.8,63 82.8,67.5 95.6,67.5 		"/>
		<linearGradient id="SVGID_4_" gradientUnits="userSpaceOnUse" x1="81.6376" y1="99.2669" x2="92.4378" y2="99.2669">
			<stop  offset="0" style="stop-color:#EF633C"/>
			<stop  offset="1" style="stop-color:#F69C29"/>
		</linearGradient>
		<polygon class="st3" points="81.6,101.5 84.8,104.7 92.4,97.1 89.2,93.9 		"/>
		<linearGradient id="SVGID_5_" gradientUnits="userSpaceOnUse" x1="93.8056" y1="77.0318" x2="140.5531" y2="77.0318">
			<stop  offset="0" style="stop-color:#EF633C"/>
			<stop  offset="1" style="stop-color:#F69C29"/>
		</linearGradient>
		<polygon class="st4" points="133.2,65.4 116.7,81.9 101.2,81.9 93.8,89.3 97,92.5 103.1,86.4 118.6,86.4 136.7,68.3 136.7,69.7 
			136.7,70.5 140.6,70.5 140.6,65.8 140.6,65.4 140.6,61.6 136.8,61.6 135.7,61.6 131.6,61.6 131.6,65.4 131.8,65.4 		"/>
		<linearGradient id="SVGID_6_" gradientUnits="userSpaceOnUse" x1="81.6376" y1="95.2375" x2="141.7089" y2="95.2375">
			<stop  offset="0" style="stop-color:#EF633C"/>
			<stop  offset="1" style="stop-color:#F69C29"/>
		</linearGradient>
		<polygon class="st5" points="131.8,97.2 132.9,98.3 133.8,99.2 120.1,99.3 113.1,92.4 104.3,101.2 84.8,81.7 81.6,84.9 
			104.3,107.6 113.1,98.7 118.2,103.8 134.1,103.8 133.1,104.8 131.8,106.1 134.6,108.8 141.7,101.6 134.6,94.5 		"/>
	</g>
	<g>
		<path class="st6" d="M58.3,40.2c27.3,0,45.6-9.2,45.6-17.8S85.6,4.5,58.3,4.5s-45.6,9.2-45.6,17.8S31.1,40.2,58.3,40.2z"/>
		<linearGradient id="SVGID_7_" gradientUnits="userSpaceOnUse" x1="8.2579" y1="75" x2="108.4195" y2="75">
			<stop  offset="0" style="stop-color:#EF633C"/>
			<stop  offset="1" style="stop-color:#F69C29"/>
		</linearGradient>
		<path class="st7" d="M103.9,127.6c0,8.6-18.3,17.8-45.6,17.8s-45.6-9.2-45.6-17.8v-22.8c7.8,7.7,25.1,12.9,45.6,12.9
			c4.9,0,9.6-0.3,14-0.9v-4.5c-4.3,0.6-9,0.9-14,0.9c-27.3,0-45.6-9.2-45.6-17.8v-28c7.8,7.7,25.1,12.9,45.6,12.9
			c4.9,0,9.6-0.3,14-0.9v-4.5c-4.3,0.6-9,0.9-14,0.9c-27.3,0-45.6-9.2-45.6-17.8V31.8c7.8,7.7,25.1,12.9,45.6,12.9
			c20.5,0,37.7-5.2,45.6-12.9v25.2h4.5V23.5h-0.1c0-0.4,0.1-0.7,0.1-1.1C108.4,9.8,86.4,0,58.3,0C30.3,0,8.3,9.8,8.3,22.4
			c0,0.4,0,0.7,0.1,1.1H8.3v104.2c0,12.5,22,22.4,50.1,22.4c28.1,0,50.1-9.8,50.1-22.4v-8.4h-4.5V127.6z M58.3,4.5
			c27.3,0,45.6,9.2,45.6,17.8S85.6,40.2,58.3,40.2S12.8,31,12.8,22.4S31.1,4.5,58.3,4.5z"/>
	</g>
</g>
</svg>
